<svg id="svg" version="1.1" xmlns="http://www.w3.org/2000/svg" xmlns:xlink="http://www.w3.org/1999/xlink" width="400" height="434.20074349442376" viewBox="0, 0, 400,434.20074349442376"><g id="svgg"><path id="path0" d="M180.800 30.200 C 180.028 30.497,177.783 30.753,175.797 30.770 C 173.816 30.786,171.566 30.988,170.797 31.218 C 170.029 31.449,168.230 31.793,166.800 31.983 C 165.370 32.173,163.030 32.623,161.600 32.983 C 160.170 33.343,157.868 33.803,156.484 34.006 C 155.100 34.208,153.751 34.507,153.485 34.671 C 153.220 34.835,152.193 35.100,151.202 35.260 C 150.211 35.421,146.790 36.472,143.600 37.596 C 140.410 38.719,137.088 39.819,136.218 40.040 C 135.348 40.260,133.998 40.781,133.218 41.198 C 132.438 41.614,130.424 42.402,128.743 42.948 C 125.690 43.939,109.961 51.566,108.771 52.632 C 108.425 52.942,106.715 53.947,104.971 54.865 C 103.227 55.784,100.406 57.495,98.703 58.668 C 97.000 59.840,95.461 60.800,95.284 60.800 C 95.107 60.800,94.259 61.520,93.400 62.400 C 92.541 63.280,91.662 64.000,91.448 64.000 C 90.753 64.000,86.658 66.929,84.330 69.091 C 83.081 70.251,81.841 71.200,81.574 71.200 C 81.307 71.200,79.676 72.550,77.949 74.200 C 76.222 75.850,74.602 77.200,74.350 77.200 C 73.752 77.200,62.800 88.227,62.800 88.829 C 62.800 89.081,60.910 91.229,58.600 93.600 C 56.290 95.971,54.400 98.101,54.400 98.332 C 54.400 98.562,53.680 99.583,52.800 100.600 C 51.920 101.617,51.200 102.622,51.200 102.833 C 51.200 103.045,50.503 103.979,49.651 104.909 C 48.799 105.839,47.635 107.528,47.064 108.661 C 46.493 109.795,45.467 111.325,44.783 112.061 C 44.099 112.798,43.083 114.300,42.525 115.400 C 41.967 116.500,41.107 117.940,40.613 118.600 C 40.119 119.260,39.303 120.610,38.800 121.600 C 38.297 122.590,37.470 123.945,36.963 124.611 C 36.456 125.277,35.641 126.897,35.152 128.211 C 34.663 129.525,34.015 130.894,33.713 131.252 C 32.945 132.162,31.739 134.590,31.417 135.875 C 31.268 136.467,30.822 137.412,30.424 137.976 C 29.688 139.020,28.103 142.602,26.785 146.200 C 26.382 147.300,25.500 149.524,24.826 151.141 C 24.152 152.759,23.600 154.352,23.600 154.681 C 23.600 155.010,23.361 155.846,23.068 156.540 C 22.045 158.965,21.200 161.917,21.200 163.065 C 21.200 163.701,20.953 164.577,20.650 165.011 C 20.348 165.445,19.967 166.610,19.803 167.600 C 19.640 168.590,19.077 170.546,18.553 171.948 C 18.029 173.349,17.597 175.149,17.594 175.948 C 17.591 176.746,17.329 178.120,17.012 179.000 C 16.695 179.880,16.427 181.689,16.418 183.020 C 16.408 184.351,16.194 185.646,15.943 185.897 C 15.360 186.480,14.801 191.387,14.464 198.882 C 14.291 202.735,14.028 204.935,13.700 205.262 C 13.001 205.958,12.988 225.056,13.685 226.674 C 13.952 227.293,14.301 230.050,14.461 232.800 C 14.868 239.824,15.374 244.054,15.926 245.074 C 16.187 245.554,16.400 247.107,16.400 248.523 C 16.400 249.940,16.670 251.865,17.000 252.800 C 17.330 253.735,17.600 255.210,17.600 256.077 C 17.600 256.943,17.812 258.046,18.070 258.526 C 18.573 259.462,20.640 266.752,21.152 269.400 C 21.323 270.280,21.860 271.810,22.347 272.800 C 23.193 274.517,23.684 276.087,24.357 279.215 C 24.649 280.572,26.193 284.226,27.418 286.462 C 27.738 287.046,28.000 287.821,28.000 288.185 C 28.000 288.746,30.230 293.530,32.231 297.262 C 32.544 297.846,32.800 298.673,32.800 299.100 C 32.800 299.527,33.154 300.196,33.586 300.587 C 34.018 300.979,35.161 302.941,36.125 304.949 C 37.089 306.957,38.174 308.846,38.536 309.147 C 38.898 309.447,39.373 310.357,39.591 311.167 C 39.809 311.978,40.622 313.352,41.397 314.221 C 42.171 315.089,42.918 316.151,43.055 316.580 C 43.285 317.298,46.007 321.396,49.408 326.145 C 50.175 327.214,51.701 329.074,52.801 330.277 C 53.900 331.480,54.800 332.634,54.800 332.841 C 54.800 333.048,55.497 333.979,56.348 334.909 C 57.199 335.839,58.008 336.963,58.145 337.406 C 58.440 338.361,79.684 359.600,80.344 359.600 C 80.594 359.600,81.487 360.223,82.329 360.984 C 83.830 362.339,85.793 363.799,89.800 366.537 C 90.900 367.289,92.155 368.300,92.590 368.783 C 93.024 369.266,94.359 370.125,95.555 370.691 C 96.751 371.257,98.376 372.294,99.165 372.995 C 99.954 373.697,101.587 374.795,102.794 375.436 C 104.000 376.076,105.170 376.806,105.394 377.058 C 105.617 377.311,107.330 378.269,109.200 379.188 C 111.070 380.107,112.940 381.043,113.357 381.268 C 119.664 384.678,130.388 389.600,131.514 389.600 C 131.891 389.600,133.280 390.100,134.600 390.710 C 137.203 391.913,147.129 395.201,151.000 396.142 C 152.320 396.462,155.020 397.130,157.000 397.625 C 158.980 398.119,161.603 398.653,162.829 398.810 C 164.055 398.967,165.438 399.299,165.903 399.548 C 166.367 399.797,168.165 400.000,169.897 400.000 C 172.048 400.000,173.293 400.186,173.824 400.587 C 174.411 401.031,175.868 401.179,179.800 401.192 C 183.071 401.203,185.816 401.429,187.200 401.800 C 190.273 402.625,205.993 402.631,209.400 401.808 C 210.725 401.488,213.860 401.216,216.400 401.200 C 219.609 401.180,221.302 400.999,222.000 400.600 C 222.641 400.234,224.203 400.023,226.346 400.014 C 228.187 400.006,230.527 399.742,231.546 399.426 C 234.637 398.469,240.468 397.094,242.800 396.772 C 244.750 396.502,247.393 395.766,249.800 394.823 C 251.734 394.065,254.655 393.196,255.263 393.198 C 255.627 393.199,257.129 392.660,258.600 392.000 C 260.071 391.340,261.573 390.794,261.937 390.787 C 262.302 390.780,262.949 390.510,263.376 390.187 C 263.804 389.864,264.582 389.600,265.105 389.600 C 265.629 389.600,267.946 388.610,270.253 387.400 C 272.560 386.190,274.812 385.200,275.257 385.200 C 276.124 385.200,282.807 381.820,284.921 380.312 C 285.625 379.810,287.076 378.993,288.147 378.497 C 289.218 378.000,290.901 377.049,291.887 376.383 C 292.874 375.717,294.537 374.739,295.583 374.208 C 296.630 373.678,298.033 372.784,298.701 372.222 C 299.369 371.660,300.049 371.200,300.213 371.200 C 300.376 371.200,301.430 370.472,302.555 369.583 C 303.680 368.693,305.612 367.298,306.850 366.483 C 308.087 365.667,310.139 364.055,311.409 362.900 C 312.679 361.745,313.922 360.800,314.171 360.800 C 314.420 360.800,315.788 359.624,317.212 358.186 C 318.635 356.749,320.520 355.096,321.400 354.513 C 323.517 353.112,334.400 342.361,334.400 341.672 C 334.400 341.376,335.903 339.571,337.741 337.661 C 339.579 335.751,341.383 333.606,341.751 332.894 C 342.119 332.182,342.581 331.600,342.778 331.600 C 342.974 331.600,343.548 330.925,344.054 330.100 C 344.559 329.275,345.699 327.671,346.586 326.536 C 347.474 325.401,348.611 323.871,349.112 323.136 C 349.614 322.401,350.462 321.170,350.998 320.400 C 351.533 319.630,352.590 317.830,353.347 316.400 C 354.104 314.970,355.281 313.271,355.962 312.625 C 356.643 311.979,357.203 311.169,357.207 310.825 C 357.210 310.481,357.648 309.480,358.179 308.600 C 359.687 306.102,368.800 287.805,368.800 287.275 C 368.800 287.015,369.309 285.677,369.931 284.301 C 370.554 282.925,371.382 280.810,371.772 279.600 C 372.162 278.390,372.733 276.833,373.041 276.140 C 373.348 275.446,373.600 274.665,373.600 274.404 C 373.600 274.142,374.120 272.369,374.754 270.464 C 375.389 268.559,376.127 265.920,376.392 264.600 C 376.658 263.280,377.129 261.474,377.438 260.587 C 377.747 259.699,378.000 258.596,378.000 258.135 C 378.000 257.675,378.270 256.651,378.600 255.862 C 378.930 255.072,379.200 253.554,379.200 252.489 C 379.200 251.406,379.459 250.211,379.787 249.776 C 380.174 249.265,380.385 247.978,380.405 246.000 C 380.421 244.350,380.695 242.280,381.012 241.400 C 381.329 240.520,381.593 238.450,381.598 236.800 C 381.604 235.150,381.877 232.916,382.204 231.836 C 383.061 229.014,383.047 202.184,382.188 199.800 C 381.871 198.920,381.609 196.918,381.606 195.350 C 381.603 193.783,381.330 191.735,381.000 190.800 C 380.670 189.865,380.400 187.793,380.400 186.195 C 380.400 184.397,380.172 182.855,379.802 182.146 C 379.474 181.516,379.204 180.067,379.202 178.926 C 379.201 177.785,379.003 176.345,378.761 175.726 C 378.059 173.923,377.220 170.856,376.430 167.200 C 375.791 164.241,375.231 162.420,373.170 156.600 C 372.936 155.940,372.321 154.020,371.804 152.333 C 371.286 150.647,370.594 148.847,370.265 148.333 C 369.937 147.820,369.398 146.500,369.068 145.400 C 368.738 144.300,367.882 142.230,367.166 140.800 C 366.450 139.370,365.454 137.051,364.953 135.647 C 364.451 134.243,363.702 132.713,363.288 132.247 C 362.163 130.981,360.800 128.452,360.800 127.631 C 360.800 127.233,360.443 126.454,360.007 125.900 C 359.571 125.346,358.541 123.566,357.719 121.946 C 356.092 118.741,349.588 108.747,347.499 106.242 C 346.785 105.385,346.087 104.395,345.948 104.042 C 345.810 103.689,345.252 102.950,344.710 102.400 C 344.167 101.850,343.054 100.441,342.237 99.269 C 341.419 98.097,340.173 96.567,339.467 95.869 C 338.762 95.171,338.008 94.195,337.792 93.699 C 337.206 92.352,320.018 75.246,318.400 74.399 C 317.630 73.996,316.190 72.824,315.200 71.795 C 314.210 70.767,312.500 69.336,311.400 68.617 C 310.300 67.897,308.964 66.834,308.430 66.254 C 307.897 65.674,307.241 65.200,306.973 65.200 C 306.704 65.200,305.952 64.705,305.300 64.100 C 303.939 62.835,297.153 58.234,294.200 56.574 C 293.100 55.955,291.691 55.033,291.069 54.525 C 290.447 54.016,289.724 53.600,289.461 53.600 C 289.198 53.600,287.907 52.885,286.591 52.011 C 285.276 51.138,283.995 50.418,283.744 50.411 C 283.049 50.394,280.336 49.104,278.995 48.152 C 278.338 47.686,277.350 47.170,276.800 47.005 C 276.250 46.841,274.203 45.918,272.250 44.955 C 270.298 43.992,266.608 42.457,264.050 41.545 C 261.493 40.632,259.160 39.697,258.868 39.467 C 258.575 39.237,257.495 38.923,256.468 38.769 C 255.440 38.616,252.530 37.753,250.000 36.852 C 247.470 35.952,244.826 35.212,244.124 35.207 C 243.422 35.203,242.742 35.030,242.614 34.823 C 242.486 34.616,241.531 34.333,240.491 34.196 C 239.451 34.058,238.240 33.784,237.800 33.586 C 236.765 33.122,233.383 32.471,229.600 32.007 C 227.950 31.805,225.971 31.450,225.203 31.220 C 224.434 30.989,222.454 30.798,220.803 30.796 C 219.151 30.793,216.916 30.523,215.836 30.196 C 213.103 29.367,182.955 29.370,180.800 30.200 M279.463 108.129 C 286.432 110.411,292.004 117.472,292.722 124.927 C 293.199 129.886,287.748 139.811,283.872 141.041 C 283.401 141.190,282.558 141.651,281.999 142.064 C 279.719 143.750,274.767 144.477,271.300 143.635 C 263.251 141.681,259.074 137.716,256.774 129.850 C 255.712 126.215,254.834 125.419,251.443 125.018 C 250.319 124.885,248.500 124.521,247.400 124.209 C 242.308 122.765,235.597 121.348,229.540 120.437 C 228.297 120.250,227.091 119.980,226.860 119.837 C 226.205 119.432,220.825 118.124,218.549 117.816 C 215.738 117.436,214.400 118.654,214.400 121.592 C 214.400 122.668,214.199 124.055,213.953 124.674 C 213.391 126.091,211.670 133.423,211.153 136.600 C 210.630 139.819,209.678 144.634,209.176 146.600 C 208.951 147.480,208.440 150.010,208.040 152.222 C 207.639 154.434,207.106 156.627,206.856 157.096 C 206.605 157.564,206.400 158.618,206.400 159.439 C 206.400 160.259,206.146 161.846,205.835 162.965 C 204.496 167.787,203.693 171.713,203.462 174.569 C 203.345 176.023,205.391 176.712,211.200 177.171 C 220.979 177.945,224.396 178.378,225.586 178.993 C 226.232 179.327,227.354 179.600,228.080 179.600 C 228.806 179.600,230.840 180.047,232.600 180.594 C 234.360 181.141,236.214 181.591,236.720 181.594 C 237.226 181.597,238.126 181.845,238.720 182.144 C 239.314 182.444,240.601 182.812,241.580 182.962 C 242.559 183.112,243.549 183.391,243.780 183.581 C 244.011 183.771,246.450 184.744,249.200 185.744 C 256.950 188.561,270.405 195.796,272.429 198.236 C 273.306 199.291,275.878 198.931,277.408 197.538 C 282.376 193.018,294.596 190.197,298.800 192.600 C 299.350 192.914,300.250 193.180,300.800 193.190 C 301.821 193.208,306.013 194.990,306.391 195.566 C 306.506 195.741,307.080 196.135,307.668 196.442 C 309.257 197.272,312.301 200.258,313.482 202.142 C 314.052 203.054,314.628 203.890,314.760 204.000 C 318.723 207.305,319.915 221.011,316.829 227.800 C 316.229 229.120,315.532 230.691,315.281 231.291 C 314.639 232.827,309.054 238.574,307.062 239.749 C 303.891 241.618,303.035 242.875,303.428 245.081 C 304.233 249.604,303.585 257.660,301.955 263.400 C 301.518 264.940,300.984 266.920,300.769 267.800 C 300.554 268.680,299.821 270.570,299.139 272.000 C 296.969 276.555,295.601 279.232,295.193 279.723 C 294.229 280.884,291.971 284.306,291.447 285.400 C 290.815 286.720,278.519 298.995,276.600 300.222 C 275.940 300.644,275.197 301.172,274.949 301.395 C 274.701 301.618,274.161 302.023,273.749 302.295 C 273.337 302.567,271.470 303.810,269.600 305.057 C 261.454 310.491,245.584 317.549,237.800 319.201 C 236.920 319.388,235.747 319.714,235.193 319.925 C 234.640 320.136,232.660 320.611,230.793 320.981 C 228.927 321.350,226.833 321.910,226.140 322.226 C 225.446 322.542,223.883 322.800,222.666 322.800 C 221.448 322.800,219.945 323.004,219.326 323.254 C 215.500 324.797,180.572 324.812,177.726 323.273 C 177.246 323.013,175.749 322.800,174.400 322.800 C 173.051 322.800,171.560 322.593,171.086 322.339 C 170.612 322.085,168.419 321.465,166.212 320.961 C 157.070 318.871,148.169 316.120,144.600 314.280 C 143.940 313.940,140.430 312.182,136.800 310.374 C 133.170 308.565,129.660 306.691,129.000 306.208 C 128.340 305.726,126.900 304.820,125.800 304.195 C 124.700 303.570,123.620 302.841,123.400 302.576 C 123.180 302.310,122.214 301.536,121.253 300.856 C 114.949 296.392,104.570 285.378,102.799 281.273 C 102.579 280.763,101.966 279.773,101.436 279.073 C 99.573 276.612,95.573 267.483,95.007 264.400 C 94.866 263.630,94.600 262.550,94.416 262.000 C 93.289 258.623,92.672 251.186,93.193 247.251 C 93.805 242.630,93.598 242.136,90.114 239.899 C 80.169 233.512,74.852 218.236,79.564 209.587 C 79.748 209.250,80.023 208.407,80.175 207.715 C 80.327 207.022,80.710 206.241,81.026 205.979 C 81.342 205.717,81.600 205.345,81.600 205.152 C 81.600 204.709,84.209 200.968,85.570 199.458 C 87.745 197.046,94.070 193.250,96.000 193.198 C 96.550 193.184,97.450 192.914,98.000 192.600 C 102.132 190.238,114.114 192.954,119.357 197.441 C 121.499 199.275,123.672 199.004,126.431 196.559 C 126.779 196.252,127.203 196.000,127.374 196.000 C 127.545 196.000,128.341 195.490,129.142 194.866 C 130.686 193.664,131.551 193.185,137.600 190.184 C 139.690 189.147,141.580 188.165,141.800 188.002 C 142.020 187.839,143.280 187.335,144.600 186.881 C 148.585 185.510,152.576 183.952,153.000 183.601 C 153.220 183.420,154.300 183.085,155.400 182.858 C 158.050 182.312,160.429 181.699,163.664 180.731 C 165.130 180.292,167.110 179.842,168.064 179.729 C 169.019 179.617,170.520 179.266,171.400 178.950 C 173.271 178.277,177.707 177.753,186.600 177.152 C 194.960 176.588,195.234 176.363,196.403 169.135 C 197.027 165.281,197.881 161.138,198.329 159.800 C 198.812 158.356,200.207 151.498,200.974 146.800 C 201.881 141.242,202.689 137.356,203.106 136.553 C 203.321 136.139,203.716 134.273,203.984 132.408 C 204.252 130.542,204.629 128.719,204.823 128.358 C 205.016 127.996,205.348 126.463,205.560 124.950 C 205.995 121.854,206.595 119.056,207.393 116.400 C 207.691 115.410,208.028 113.790,208.143 112.800 C 208.658 108.342,210.691 107.820,219.800 109.802 C 222.440 110.377,225.770 111.091,227.200 111.390 C 228.630 111.688,230.307 112.128,230.926 112.366 C 231.545 112.605,232.749 112.800,233.600 112.800 C 234.451 112.800,235.618 112.979,236.192 113.197 C 238.096 113.921,245.756 115.668,248.562 116.019 C 250.082 116.209,251.513 116.553,251.742 116.782 C 253.711 118.751,258.463 116.915,261.162 113.144 C 264.457 108.538,273.308 106.113,279.463 108.129 M151.206 218.039 C 146.802 219.310,141.769 223.469,139.601 227.629 C 137.270 232.101,136.358 239.495,137.798 242.254 C 138.126 242.884,138.404 243.670,138.416 244.000 C 138.482 245.936,142.698 251.388,145.958 253.754 C 153.910 259.525,167.521 256.890,172.684 248.579 C 175.637 243.825,176.258 241.120,175.833 234.860 C 175.011 222.780,163.061 214.618,151.206 218.039 M234.734 217.960 C 217.281 224.313,215.538 246.855,231.854 255.200 L 234.591 256.600 240.195 256.600 C 259.944 256.600,267.176 231.919,250.793 220.428 C 246.707 217.561,239.059 216.386,234.734 217.960 M155.460 279.226 C 152.356 279.752,150.546 283.597,151.994 286.588 C 154.274 291.296,163.932 296.979,173.800 299.417 C 176.000 299.961,178.700 300.663,179.800 300.978 C 186.861 302.998,213.556 302.935,217.447 300.889 C 217.861 300.671,219.010 300.365,220.000 300.208 C 225.166 299.389,232.791 296.466,236.714 293.800 C 237.524 293.250,238.392 292.800,238.644 292.800 C 239.692 292.800,244.787 287.536,245.257 285.969 C 247.056 279.963,240.376 276.861,235.099 281.252 C 219.045 294.613,176.809 294.638,161.969 281.296 C 159.782 279.330,158.067 278.785,155.460 279.226 " stroke="none" fill="#157cf3" fill-rule="evenodd"></path><path id="path1" d="M0.000 217.000 L 0.000 434.000 200.000 434.000 L 400.000 434.000 400.000 217.000 L 400.000 0.000 200.000 0.000 L 0.000 0.000 0.000 217.000 M215.836 30.196 C 216.916 30.523,219.151 30.793,220.803 30.796 C 222.454 30.798,224.434 30.989,225.203 31.220 C 225.971 31.450,227.950 31.805,229.600 32.007 C 233.383 32.471,236.765 33.122,237.800 33.586 C 238.240 33.784,239.451 34.058,240.491 34.196 C 241.531 34.333,242.486 34.616,242.614 34.823 C 242.742 35.030,243.422 35.203,244.124 35.207 C 244.826 35.212,247.470 35.952,250.000 36.852 C 252.530 37.753,255.440 38.616,256.468 38.769 C 257.495 38.923,258.575 39.237,258.868 39.467 C 259.160 39.697,261.493 40.632,264.050 41.545 C 266.608 42.457,270.298 43.992,272.250 44.955 C 274.203 45.918,276.250 46.841,276.800 47.005 C 277.350 47.170,278.338 47.686,278.995 48.152 C 280.336 49.104,283.049 50.394,283.744 50.411 C 283.995 50.418,285.276 51.138,286.591 52.011 C 287.907 52.885,289.198 53.600,289.461 53.600 C 289.724 53.600,290.447 54.016,291.069 54.525 C 291.691 55.033,293.100 55.955,294.200 56.574 C 297.153 58.234,303.939 62.835,305.300 64.100 C 305.952 64.705,306.704 65.200,306.973 65.200 C 307.241 65.200,307.897 65.674,308.430 66.254 C 308.964 66.834,310.300 67.897,311.400 68.617 C 312.500 69.336,314.210 70.767,315.200 71.795 C 316.190 72.824,317.630 73.996,318.400 74.399 C 320.018 75.246,337.206 92.352,337.792 93.699 C 338.008 94.195,338.762 95.171,339.467 95.869 C 340.173 96.567,341.419 98.097,342.237 99.269 C 343.054 100.441,344.167 101.850,344.710 102.400 C 345.252 102.950,345.810 103.689,345.948 104.042 C 346.087 104.395,346.785 105.385,347.499 106.242 C 349.588 108.747,356.092 118.741,357.719 121.946 C 358.541 123.566,359.571 125.346,360.007 125.900 C 360.443 126.454,360.800 127.233,360.800 127.631 C 360.800 128.452,362.163 130.981,363.288 132.247 C 363.702 132.713,364.451 134.243,364.953 135.647 C 365.454 137.051,366.450 139.370,367.166 140.800 C 367.882 142.230,368.738 144.300,369.068 145.400 C 369.398 146.500,369.937 147.820,370.265 148.333 C 370.594 148.847,371.286 150.647,371.804 152.333 C 372.321 154.020,372.936 155.940,373.170 156.600 C 375.231 162.420,375.791 164.241,376.430 167.200 C 377.220 170.856,378.059 173.923,378.761 175.726 C 379.003 176.345,379.201 177.785,379.202 178.926 C 379.204 180.067,379.474 181.516,379.802 182.146 C 380.172 182.855,380.400 184.397,380.400 186.195 C 380.400 187.793,380.670 189.865,381.000 190.800 C 381.330 191.735,381.603 193.783,381.606 195.350 C 381.609 196.918,381.871 198.920,382.188 199.800 C 383.047 202.184,383.061 229.014,382.204 231.836 C 381.877 232.916,381.604 235.150,381.598 236.800 C 381.593 238.450,381.329 240.520,381.012 241.400 C 380.695 242.280,380.421 244.350,380.405 246.000 C 380.385 247.978,380.174 249.265,379.787 249.776 C 379.459 250.211,379.200 251.406,379.200 252.489 C 379.200 253.554,378.930 255.072,378.600 255.862 C 378.270 256.651,378.000 257.675,378.000 258.135 C 378.000 258.596,377.747 259.699,377.438 260.587 C 377.129 261.474,376.658 263.280,376.392 264.600 C 376.127 265.920,375.389 268.559,374.754 270.464 C 374.120 272.369,373.600 274.142,373.600 274.404 C 373.600 274.665,373.348 275.446,373.041 276.140 C 372.733 276.833,372.162 278.390,371.772 279.600 C 371.382 280.810,370.554 282.925,369.931 284.301 C 369.309 285.677,368.800 287.015,368.800 287.275 C 368.800 287.805,359.687 306.102,358.179 308.600 C 357.648 309.480,357.210 310.481,357.207 310.825 C 357.203 311.169,356.643 311.979,355.962 312.625 C 355.281 313.271,354.104 314.970,353.347 316.400 C 352.590 317.830,351.533 319.630,350.998 320.400 C 350.462 321.170,349.614 322.401,349.112 323.136 C 348.611 323.871,347.474 325.401,346.586 326.536 C 345.699 327.671,344.559 329.275,344.054 330.100 C 343.548 330.925,342.974 331.600,342.778 331.600 C 342.581 331.600,342.119 332.182,341.751 332.894 C 341.383 333.606,339.579 335.751,337.741 337.661 C 335.903 339.571,334.400 341.376,334.400 341.672 C 334.400 342.361,323.517 353.112,321.400 354.513 C 320.520 355.096,318.635 356.749,317.212 358.186 C 315.788 359.624,314.420 360.800,314.171 360.800 C 313.922 360.800,312.679 361.745,311.409 362.900 C 310.139 364.055,308.087 365.667,306.850 366.483 C 305.612 367.298,303.680 368.693,302.555 369.583 C 301.430 370.472,300.376 371.200,300.213 371.200 C 300.049 371.200,299.369 371.660,298.701 372.222 C 298.033 372.784,296.630 373.678,295.583 374.208 C 294.537 374.739,292.874 375.717,291.887 376.383 C 290.901 377.049,289.218 378.000,288.147 378.497 C 287.076 378.993,285.625 379.810,284.921 380.312 C 282.807 381.820,276.124 385.200,275.257 385.200 C 274.812 385.200,272.560 386.190,270.253 387.400 C 267.946 388.610,265.629 389.600,265.105 389.600 C 264.582 389.600,263.804 389.864,263.376 390.187 C 262.949 390.510,262.302 390.780,261.937 390.787 C 261.573 390.794,260.071 391.340,258.600 392.000 C 257.129 392.660,255.627 393.199,255.263 393.198 C 254.655 393.196,251.734 394.065,249.800 394.823 C 247.393 395.766,244.750 396.502,242.800 396.772 C 240.468 397.094,234.637 398.469,231.546 399.426 C 230.527 399.742,228.187 400.006,226.346 400.014 C 224.203 400.023,222.641 400.234,222.000 400.600 C 221.302 400.999,219.609 401.180,216.400 401.200 C 213.860 401.216,210.725 401.488,209.400 401.808 C 205.993 402.631,190.273 402.625,187.200 401.800 C 185.816 401.429,183.071 401.203,179.800 401.192 C 175.868 401.179,174.411 401.031,173.824 400.587 C 173.293 400.186,172.048 400.000,169.897 400.000 C 168.165 400.000,166.367 399.797,165.903 399.548 C 165.438 399.299,164.055 398.967,162.829 398.810 C 161.603 398.653,158.980 398.119,157.000 397.625 C 155.020 397.130,152.320 396.462,151.000 396.142 C 147.129 395.201,137.203 391.913,134.600 390.710 C 133.280 390.100,131.891 389.600,131.514 389.600 C 130.388 389.600,119.664 384.678,113.357 381.268 C 112.940 381.043,111.070 380.107,109.200 379.188 C 107.330 378.269,105.617 377.311,105.394 377.058 C 105.170 376.806,104.000 376.076,102.794 375.436 C 101.587 374.795,99.954 373.697,99.165 372.995 C 98.376 372.294,96.751 371.257,95.555 370.691 C 94.359 370.125,93.024 369.266,92.590 368.783 C 92.155 368.300,90.900 367.289,89.800 366.537 C 85.793 363.799,83.830 362.339,82.329 360.984 C 81.487 360.223,80.594 359.600,80.344 359.600 C 79.684 359.600,58.440 338.361,58.145 337.406 C 58.008 336.963,57.199 335.839,56.348 334.909 C 55.497 333.979,54.800 333.048,54.800 332.841 C 54.800 332.634,53.900 331.480,52.801 330.277 C 51.701 329.074,50.175 327.214,49.408 326.145 C 46.007 321.396,43.285 317.298,43.055 316.580 C 42.918 316.151,42.171 315.089,41.397 314.221 C 40.622 313.352,39.809 311.978,39.591 311.167 C 39.373 310.357,38.898 309.447,38.536 309.147 C 38.174 308.846,37.089 306.957,36.125 304.949 C 35.161 302.941,34.018 300.979,33.586 300.587 C 33.154 300.196,32.800 299.527,32.800 299.100 C 32.800 298.673,32.544 297.846,32.231 297.262 C 30.230 293.530,28.000 288.746,28.000 288.185 C 28.000 287.821,27.738 287.046,27.418 286.462 C 26.193 284.226,24.649 280.572,24.357 279.215 C 23.684 276.087,23.193 274.517,22.347 272.800 C 21.860 271.810,21.323 270.280,21.152 269.400 C 20.640 266.752,18.573 259.462,18.070 258.526 C 17.812 258.046,17.600 256.943,17.600 256.077 C 17.600 255.210,17.330 253.735,17.000 252.800 C 16.670 251.865,16.400 249.940,16.400 248.523 C 16.400 247.107,16.187 245.554,15.926 245.074 C 15.374 244.054,14.868 239.824,14.461 232.800 C 14.301 230.050,13.952 227.293,13.685 226.674 C 12.988 225.056,13.001 205.958,13.700 205.262 C 14.028 204.935,14.291 202.735,14.464 198.882 C 14.801 191.387,15.360 186.480,15.943 185.897 C 16.194 185.646,16.408 184.351,16.418 183.020 C 16.427 181.689,16.695 179.880,17.012 179.000 C 17.329 178.120,17.591 176.746,17.594 175.948 C 17.597 175.149,18.029 173.349,18.553 171.948 C 19.077 170.546,19.640 168.590,19.803 167.600 C 19.967 166.610,20.348 165.445,20.650 165.011 C 20.953 164.577,21.200 163.701,21.200 163.065 C 21.200 161.917,22.045 158.965,23.068 156.540 C 23.361 155.846,23.600 155.010,23.600 154.681 C 23.600 154.352,24.152 152.759,24.826 151.141 C 25.500 149.524,26.382 147.300,26.785 146.200 C 28.103 142.602,29.688 139.020,30.424 137.976 C 30.822 137.412,31.268 136.467,31.417 135.875 C 31.739 134.590,32.945 132.162,33.713 131.252 C 34.015 130.894,34.663 129.525,35.152 128.211 C 35.641 126.897,36.456 125.277,36.963 124.611 C 37.470 123.945,38.297 122.590,38.800 121.600 C 39.303 120.610,40.119 119.260,40.613 118.600 C 41.107 117.940,41.967 116.500,42.525 115.400 C 43.083 114.300,44.099 112.798,44.783 112.061 C 45.467 111.325,46.493 109.795,47.064 108.661 C 47.635 107.528,48.799 105.839,49.651 104.909 C 50.503 103.979,51.200 103.045,51.200 102.833 C 51.200 102.622,51.920 101.617,52.800 100.600 C 53.680 99.583,54.400 98.562,54.400 98.332 C 54.400 98.101,56.290 95.971,58.600 93.600 C 60.910 91.229,62.800 89.081,62.800 88.829 C 62.800 88.227,73.752 77.200,74.350 77.200 C 74.602 77.200,76.222 75.850,77.949 74.200 C 79.676 72.550,81.307 71.200,81.574 71.200 C 81.841 71.200,83.081 70.251,84.330 69.091 C 86.658 66.929,90.753 64.000,91.448 64.000 C 91.662 64.000,92.541 63.280,93.400 62.400 C 94.259 61.520,95.107 60.800,95.284 60.800 C 95.461 60.800,97.000 59.840,98.703 58.668 C 100.406 57.495,103.227 55.784,104.971 54.865 C 106.715 53.947,108.425 52.942,108.771 52.632 C 109.961 51.566,125.690 43.939,128.743 42.948 C 130.424 42.402,132.438 41.614,133.218 41.198 C 133.998 40.781,135.348 40.260,136.218 40.040 C 137.088 39.819,140.410 38.719,143.600 37.596 C 146.790 36.472,150.211 35.421,151.202 35.260 C 152.193 35.100,153.220 34.835,153.485 34.671 C 153.751 34.507,155.100 34.208,156.484 34.006 C 157.868 33.803,160.170 33.343,161.600 32.983 C 163.030 32.623,165.370 32.173,166.800 31.983 C 168.230 31.793,170.029 31.449,170.797 31.218 C 171.566 30.988,173.816 30.786,175.797 30.770 C 177.783 30.753,180.028 30.497,180.800 30.200 C 182.955 29.370,213.103 29.367,215.836 30.196 M269.600 107.967 C 266.563 108.924,262.317 111.529,261.162 113.144 C 258.463 116.915,253.711 118.751,251.742 116.782 C 251.513 116.553,250.082 116.209,248.562 116.019 C 245.756 115.668,238.096 113.921,236.192 113.197 C 235.618 112.979,234.451 112.800,233.600 112.800 C 232.749 112.800,231.545 112.605,230.926 112.366 C 230.307 112.128,228.630 111.688,227.200 111.390 C 225.770 111.091,222.440 110.377,219.800 109.802 C 210.691 107.820,208.658 108.342,208.143 112.800 C 208.028 113.790,207.691 115.410,207.393 116.400 C 206.595 119.056,205.995 121.854,205.560 124.950 C 205.348 126.463,205.016 127.996,204.823 128.358 C 204.629 128.719,204.252 130.542,203.984 132.408 C 203.716 134.273,203.321 136.139,203.106 136.553 C 202.689 137.356,201.881 141.242,200.974 146.800 C 200.207 151.498,198.812 158.356,198.329 159.800 C 197.881 161.138,197.027 165.281,196.403 169.135 C 195.234 176.363,194.960 176.588,186.600 177.152 C 177.707 177.753,173.271 178.277,171.400 178.950 C 170.520 179.266,169.019 179.617,168.064 179.729 C 167.110 179.842,165.130 180.292,163.664 180.731 C 160.429 181.699,158.050 182.312,155.400 182.858 C 154.300 183.085,153.220 183.420,153.000 183.601 C 152.576 183.952,148.585 185.510,144.600 186.881 C 143.280 187.335,142.020 187.839,141.800 188.002 C 141.580 188.165,139.690 189.147,137.600 190.184 C 131.551 193.185,130.686 193.664,129.142 194.866 C 128.341 195.490,127.545 196.000,127.374 196.000 C 127.203 196.000,126.779 196.252,126.431 196.559 C 123.672 199.004,121.499 199.275,119.357 197.441 C 114.114 192.954,102.132 190.238,98.000 192.600 C 97.450 192.914,96.550 193.184,96.000 193.198 C 94.070 193.250,87.745 197.046,85.570 199.458 C 84.209 200.968,81.600 204.709,81.600 205.152 C 81.600 205.345,81.342 205.717,81.026 205.979 C 80.710 206.241,80.327 207.022,80.175 207.715 C 80.023 208.407,79.748 209.250,79.564 209.587 C 74.852 218.236,80.169 233.512,90.114 239.899 C 93.598 242.136,93.805 242.630,93.193 247.251 C 92.672 251.186,93.289 258.623,94.416 262.000 C 94.600 262.550,94.866 263.630,95.007 264.400 C 95.573 267.483,99.573 276.612,101.436 279.073 C 101.966 279.773,102.579 280.763,102.799 281.273 C 104.570 285.378,114.949 296.392,121.253 300.856 C 122.214 301.536,123.180 302.310,123.400 302.576 C 123.620 302.841,124.700 303.570,125.800 304.195 C 126.900 304.820,128.340 305.726,129.000 306.208 C 129.660 306.691,133.170 308.565,136.800 310.374 C 140.430 312.182,143.940 313.940,144.600 314.280 C 148.169 316.120,157.070 318.871,166.212 320.961 C 168.419 321.465,170.612 322.085,171.086 322.339 C 171.560 322.593,173.051 322.800,174.400 322.800 C 175.749 322.800,177.246 323.013,177.726 323.273 C 180.572 324.812,215.500 324.797,219.326 323.254 C 219.945 323.004,221.448 322.800,222.666 322.800 C 223.883 322.800,225.446 322.542,226.140 322.226 C 226.833 321.910,228.927 321.350,230.793 320.981 C 232.660 320.611,234.640 320.136,235.193 319.925 C 235.747 319.714,236.920 319.388,237.800 319.201 C 245.584 317.549,261.454 310.491,269.600 305.057 C 271.470 303.810,273.337 302.567,273.749 302.295 C 274.161 302.023,274.701 301.618,274.949 301.395 C 275.197 301.172,275.940 300.644,276.600 300.222 C 278.519 298.995,290.815 286.720,291.447 285.400 C 291.971 284.306,294.229 280.884,295.193 279.723 C 295.601 279.232,296.969 276.555,299.139 272.000 C 299.821 270.570,300.554 268.680,300.769 267.800 C 300.984 266.920,301.518 264.940,301.955 263.400 C 303.585 257.660,304.233 249.604,303.428 245.081 C 303.035 242.875,303.891 241.618,307.062 239.749 C 309.054 238.574,314.639 232.827,315.281 231.291 C 315.532 230.691,316.229 229.120,316.829 227.800 C 319.915 221.011,318.723 207.305,314.760 204.000 C 314.628 203.890,314.052 203.054,313.482 202.142 C 312.301 200.258,309.257 197.272,307.668 196.442 C 307.080 196.135,306.506 195.741,306.391 195.566 C 306.013 194.990,301.821 193.208,300.800 193.190 C 300.250 193.180,299.350 192.914,298.800 192.600 C 296.022 191.012,287.013 192.024,282.200 194.464 C 279.381 195.893,278.822 196.252,277.408 197.538 C 275.878 198.931,273.306 199.291,272.429 198.236 C 270.405 195.796,256.950 188.561,249.200 185.744 C 246.450 184.744,244.011 183.771,243.780 183.581 C 243.549 183.391,242.559 183.112,241.580 182.962 C 240.601 182.812,239.314 182.444,238.720 182.144 C 238.126 181.845,237.226 181.597,236.720 181.594 C 236.214 181.591,234.360 181.141,232.600 180.594 C 230.840 180.047,228.806 179.600,228.080 179.600 C 227.354 179.600,226.232 179.327,225.586 178.993 C 224.396 178.378,220.979 177.945,211.200 177.171 C 205.391 176.712,203.345 176.023,203.462 174.569 C 203.693 171.713,204.496 167.787,205.835 162.965 C 206.146 161.846,206.400 160.259,206.400 159.439 C 206.400 158.618,206.605 157.564,206.856 157.096 C 207.106 156.627,207.639 154.434,208.040 152.222 C 208.440 150.010,208.951 147.480,209.176 146.600 C 209.678 144.634,210.630 139.819,211.153 136.600 C 211.670 133.423,213.391 126.091,213.953 124.674 C 214.199 124.055,214.400 122.668,214.400 121.592 C 214.400 118.654,215.738 117.436,218.549 117.816 C 220.825 118.124,226.205 119.432,226.860 119.837 C 227.091 119.980,228.297 120.250,229.540 120.437 C 235.597 121.348,242.308 122.765,247.400 124.209 C 248.500 124.521,250.319 124.885,251.443 125.018 C 254.834 125.419,255.712 126.215,256.774 129.850 C 259.074 137.716,263.251 141.681,271.300 143.635 C 274.767 144.477,279.719 143.750,281.999 142.064 C 282.558 141.651,283.401 141.190,283.872 141.041 C 287.748 139.811,293.199 129.886,292.722 124.927 C 291.602 113.292,279.910 104.716,269.600 107.967 M162.437 218.127 C 170.435 220.928,175.298 227.003,175.833 234.860 C 176.258 241.120,175.637 243.825,172.684 248.579 C 167.521 256.890,153.910 259.525,145.958 253.754 C 142.698 251.388,138.482 245.936,138.416 244.000 C 138.404 243.670,138.126 242.884,137.798 242.254 C 136.358 239.495,137.270 232.101,139.601 227.629 C 143.811 219.551,154.182 215.236,162.437 218.127 M246.146 218.132 C 247.437 218.507,249.528 219.540,250.793 220.428 C 267.176 231.919,259.944 256.600,240.195 256.600 L 234.591 256.600 231.854 255.200 C 226.247 252.332,222.092 247.086,221.111 241.636 C 218.307 226.058,231.332 213.829,246.146 218.132 M161.969 281.296 C 176.809 294.638,219.045 294.613,235.099 281.252 C 237.461 279.287,238.181 279.042,241.269 279.159 C 243.977 279.262,246.153 282.978,245.257 285.969 C 244.787 287.536,239.692 292.800,238.644 292.800 C 238.392 292.800,237.524 293.250,236.714 293.800 C 232.791 296.466,225.166 299.389,220.000 300.208 C 219.010 300.365,217.861 300.671,217.447 300.889 C 213.556 302.935,186.861 302.998,179.800 300.978 C 178.700 300.663,176.000 299.961,173.800 299.417 C 160.859 296.220,150.139 288.455,151.585 283.327 C 152.941 278.521,157.821 277.566,161.969 281.296 " stroke="none" fill="#fbfbfb" fill-rule="evenodd"></path></g></svg>