<svg xmlns="http://www.w3.org/2000/svg" width="400" height="400"><g fill-rule="evenodd"><path d="M0 14.4c0 8.478.151 14.4.367 14.4 1.021 0 1.709-.656 2.453-2.338.45-1.019 1.162-2.217 1.58-2.662.419-.446 1.041-1.48 1.383-2.298.342-.817 1.07-1.781 1.619-2.14.549-.36.998-.878.998-1.151 0-.274 2.205-2.69 4.9-5.369C20.132 6.049 20.184 6 20.619 6c.214 0 .913-.495 1.554-1.1.641-.605 1.989-1.563 2.996-2.129 1.154-.648 1.878-1.35 1.959-1.9L27.256 0H0v14.4M372.872.826c.08.515.88 1.229 2.128 1.9 1.1.591 2.18 1.283 2.4 1.539.22.256 1.017.831 1.77 1.279 1.548.918 5.23 4.373 5.23 4.906 0 .193.225.351.5.351.275.001.843.513 1.262 1.138.419.626 1.273 1.48 1.899 1.899.625.419 1.137.879 1.138 1.022 0 .143.631.953 1.401 1.8 2.852 3.136 3.4 3.797 3.4 4.1 0 .17.695 1.284 1.545 2.475s1.681 2.615 1.847 3.165c.38 1.256 1.366 2.4 2.07 2.4.441 0 .538-2.604.538-14.4V0h-13.628c-13.544 0-13.627.005-13.5.826M224.4 60.732c-2.005.538-7.6 6.028-7.6 7.458 0 1.135-.782 3.01-1.255 3.01-.498 0-1.475 1.667-1.693 2.888-.107.598-.726 1.768-1.376 2.6-.65.831-1.307 2.052-1.46 2.712-.153.66-.804 1.996-1.447 2.969-.643.972-1.169 2.16-1.169 2.64 0 1.208-.778 3.384-1.668 4.662-.41.589-.893 1.849-1.073 2.8-.18.951-.879 2.899-1.554 4.329-.863 1.83-1.299 3.474-1.473 5.551-.136 1.623-.499 3.423-.807 4-1.199 2.245-1.825 4.56-1.827 6.757-.002 1.357-.269 2.782-.655 3.492a192.5 192.5 0 00-1.176 2.2c-.288.55-.55 1.81-.581 2.8-.083 2.632-.777 5.623-1.635 7.047-.413.686-.751 1.599-.751 2.028 0 4.649-1.831 6.054-8.023 6.152-2.517.04-5.387.318-6.377.618-.99.301-3.353.548-5.251.551-2.167.002-3.99.229-4.9.609-.797.333-1.449.518-1.449.41 0-.107-.495-.007-1.1.224-.605.23-2.597.589-4.426.797-1.829.208-4.431.828-5.782 1.377s-3.518 1.089-4.817 1.202c-1.536.132-3.149.619-4.618 1.393-1.241.655-2.759 1.191-3.373 1.191-.985.001-2.288.572-5.238 2.295-.465.272-1.605.497-2.532.5-1.305.005-1.947.261-2.838 1.132-.633.619-1.765 1.354-2.514 1.633-.749.279-1.632.67-1.962.869-2.589 1.561-3.031 1.667-6.972 1.668-3.468.001-4.579-.179-7.993-1.3-5.167-1.697-11.32-1.637-14.999.145-1.19.577-3.08 1.158-4.2 1.293-2.917.349-5.036.934-5.036 1.39 0 .216-.405.55-.9.741-2.883 1.114-4.3 1.792-4.3 2.058 0 .165-.765.753-1.7 1.306-2.41 1.423-8.6 7.668-10.006 10.094-.168.29-.843 1.065-1.5 1.721-.657.657-1.194 1.464-1.194 1.795 0 .33-.43 1.111-.957 1.737-.526.625-1.241 2.094-1.588 3.265-.348 1.17-.981 2.697-1.407 3.393-1.056 1.726-2.726 14.992-1.988 15.786.143.154.379 2.16.524 4.457.145 2.297.353 4.322.463 4.498.109.177.273.707.363 1.178.091.471.443 1.164.783 1.54.34.375.895 1.743 1.232 3.04.338 1.297.943 2.72 1.345 3.162.403.443.938 1.45 1.19 2.239.252.789.994 1.947 1.649 2.575.655.627 1.191 1.315 1.191 1.528 0 .213.421.944.935 1.625 1.291 1.71 1.837 5.785 1.868 13.942.026 7.003.038 7.094 1.211 9.729.4.898.941 2.788 1.204 4.2.494 2.657 1.57 5.554 2.066 5.562.156.003.496.712.754 1.575.259.864.955 2.101 1.546 2.748.592.648 1.32 1.786 1.619 2.53.299.744 1.566 2.522 2.816 3.952 1.25 1.43 2.399 3.005 2.554 3.5.155.496.623 1.084 1.042 1.308.418.224 1.226 1.203 1.796 2.175.625 1.066 1.735 2.178 2.795 2.799.966.567 1.99 1.36 2.276 1.763.285.403 1.418 1.49 2.518 2.417 1.796 1.511 2.831 2.417 6.2 5.417.55.49 1.776 1.193 2.725 1.563.948.369 2.193 1.106 2.767 1.638.574.532 1.487 1.079 2.03 1.215.543.136 1.548.666 2.233 1.177s1.965 1.153 2.845 1.428c.88.274 1.971.836 2.424 1.248.453.412 1.713 1.048 2.8 1.413 1.087.365 2.394.987 2.904 1.382.511.394 1.926 1.007 3.146 1.361 1.219.355 2.871 1.073 3.671 1.597.921.602 2.366 1.052 3.938 1.225 5.318.586 4.937 2.364-2.022 9.422-6.31 6.401-10.661 11.382-10.661 12.204 0 .331-.435 1.174-.967 1.875-.531.7-1.286 2.083-1.676 3.073-.391.99-.931 1.98-1.2 2.2-.518.423-1.757 3.821-1.757 4.818 0 .324-.54 1.154-1.2 1.845-.919.962-1.2 1.626-1.2 2.836 0 1.089-.424 2.283-1.363 3.841-1.263 2.094-1.378 2.569-1.568 6.46-.117 2.417-.486 4.965-.867 6-1.996 5.418-2.241 15.897-.459 19.65.83 1.749 1.141 3.193 1.399 6.498.233 2.988.524 4.462.98 4.965.91 1.006 1.877 3.455 1.885 4.774.008 1.313 3.021 4.758 4.469 5.111.508.123 33.864.174 74.124.113l73.2-.111 1.66-.951c1.767-1.013 1.905-1.221 3.477-5.249 1.378-3.533 2.648-10.004 2.677-13.646.008-.965.275-2.834.594-4.154.671-2.777.755-11.35.142-14.4a57.03 57.03 0 01-.594-3.6c-.561-4.661-1.936-11.868-2.633-13.8-.436-1.21-1.027-3.46-1.311-5-.285-1.54-.989-3.682-1.565-4.76-.576-1.077-1.047-2.434-1.047-3.015 0-.591-.521-1.665-1.184-2.44-.651-.762-1.191-1.778-1.2-2.259-.024-1.301-.607-2.583-1.785-3.926-.578-.66-1.161-1.65-1.295-2.2-.244-1.008-8.46-9.463-10.79-11.105-.818-.577-1.317-1.315-1.436-2.125-.297-2.027.233-2.32 5.381-2.976 1.04-.132 1.995-.41 2.124-.618.39-.631 3.67-1.976 4.819-1.976.593 0 1.907-.511 2.922-1.135 1.014-.624 2.815-1.457 4.002-1.851 1.187-.394 2.794-1.148 3.571-1.676.777-.527 1.876-1.067 2.442-1.201.566-.133 1.569-.641 2.229-1.13.66-.488 2.014-1.246 3.008-1.684.995-.438 2.075-1.051 2.4-1.361.326-.31 1.267-.919 2.092-1.354.825-.434 1.5-.925 1.5-1.091 0-.165.708-.662 1.574-1.104.865-.441 1.81-1.138 2.1-1.548.289-.41 1.092-1.037 1.783-1.393 1.503-.775 11.343-10.505 11.343-11.217 0-.274.63-1.109 1.4-1.855.77-.746 1.4-1.496 1.4-1.665 0-.17.63-.938 1.4-1.708.77-.77 1.4-1.652 1.4-1.959 0-.307.54-1.238 1.201-2.069.66-.831 1.397-2.251 1.637-3.155.24-.904.603-1.914.808-2.244 1.062-1.716 1.937-3.925 1.945-4.908.005-.609.465-1.83 1.021-2.712.557-.881 1.095-2.093 1.195-2.692.18-1.07.281-1.706.966-6.088.19-1.21.37-6.025.4-10.701l.055-8.5 1.209-1.792c.665-.986 1.694-2.31 2.286-2.944 1.754-1.875 3.277-3.772 4.206-5.238 1.864-2.941 2.177-3.5 2.459-4.388.161-.506.715-1.542 1.231-2.304.517-.761 1.063-2.227 1.213-3.258.15-1.031.645-2.595 1.1-3.475 1.306-2.527 1.366-13.488.091-16.622-.493-1.212-1.024-3.16-1.179-4.328-.155-1.168-.717-2.782-1.249-3.587-.532-.805-1.182-2.093-1.444-2.863s-1.078-2.076-1.813-2.901c-.736-.826-1.338-1.695-1.338-1.932 0-1.129-8.669-10.265-10.773-11.353-.628-.325-1.66-1.108-2.292-1.74-.665-.666-1.815-1.275-2.729-1.446-.868-.163-2.176-.821-2.906-1.462-.86-.755-1.781-1.172-2.614-1.184-.707-.009-2.006-.294-2.886-.633-5.149-1.983-6.767-2.197-15.607-2.07l-8.464.121-1.621 1.124c-1.078.748-2.455 1.242-4.114 1.477-1.494.211-2.833.661-3.343 1.124-1.456 1.32-3.946 1.449-5.217.271-.592-.548-1.246-1.018-1.455-1.046a9.739 9.739 0 01-.679-.118c-.165-.037-1.02-.21-1.9-.383-.88-.173-2.458-.84-3.506-1.482-1.367-.837-2.418-1.167-3.717-1.167-1.152 0-2.714-.418-4.294-1.15-1.366-.633-3.547-1.28-4.846-1.437-2.037-.247-4.788-1.164-5.437-1.813-.11-.11-.38-.204-.6-.209-.354-.008-2.748-.258-7.99-.834-.885-.097-2.6-.378-3.81-.625-1.21-.246-2.65-.538-3.2-.648-.55-.11-3.558-.309-6.684-.442-6.479-.276-6.88-.482-6.903-3.542-.016-2.042.012-1.819-.397-3.243-.182-.636-.189-1.944-.014-2.907.175-.962.418-2.496.54-3.409a162.17 162.17 0 011.67-9.741c.298-1.43.758-3.86 1.023-5.4.265-1.54 1.071-4.459 1.792-6.486.721-2.027 1.352-4.547 1.403-5.6.057-1.184.508-2.677 1.183-3.914.72-1.323 1.161-2.846 1.3-4.497.161-1.908.456-2.788 1.249-3.731.571-.679 1.155-1.964 1.298-2.857.149-.932.748-2.18 1.407-2.93.631-.719 1.354-1.91 1.607-2.646.252-.736.879-1.896 1.392-2.577.514-.681.934-1.441.934-1.691 0-1.35 6.003-2.963 7.868-2.113.567.259 1.864.566 2.882.682 1.017.117 2.476.579 3.242 1.027 1.483.868 1.952 1.016 4.869 1.539 1.024.183 2.464.656 3.2 1.049 1.785.954 3.751 1.643 5.564 1.949.818.138 1.897.687 2.396 1.219.612.651 1.545 1.051 2.857 1.225 1.377.183 2.168.538 2.699 1.214.718.913 1.756 1.396 4.088 1.904 1.853.403 4.044 5.592 2.861 6.775-1.688 1.687-1.899 15.114-.297 18.859.565 1.32 1.308 3.21 1.651 4.2.343.99 1.121 2.34 1.728 3 .607.66 1.234 1.631 1.393 2.159.365 1.207 3.511 4.404 5.537 5.625.846.511 1.962 1.353 2.482 1.872.519.519 1.144.944 1.39.944.245 0 1.24.546 2.21 1.213 1.426.982 2.435 1.295 5.272 1.637 1.982.24 4.03.739 4.708 1.148 2.694 1.626 4.117 1.696 6.774.337 1.805-.924 3.291-1.331 5.807-1.591 2.678-.276 3.592-.543 4.4-1.283.56-.513 1.699-1.34 2.529-1.836 1.948-1.164 7.547-7.408 8.271-9.225.307-.77.91-1.909 1.339-2.532.465-.674.9-2.23 1.078-3.851.165-1.502.769-3.747 1.35-5.017 1.497-3.268 1.505-8.213.018-11.4-.652-1.398-1.106-3.221-1.247-5-.179-2.272-.414-3.008-1.247-3.903-.565-.607-1.308-1.687-1.65-2.4-.85-1.769-2.906-4.828-3.5-5.207-.267-.17-1.149-.935-1.96-1.7-.811-.764-1.648-1.39-1.86-1.39-.213 0-.916-.445-1.562-.989-.647-.545-1.843-1.172-2.658-1.396-.815-.223-2.095-.782-2.844-1.242-4.204-2.582-15.751-2.386-21.638.367-.99.464-2.138.846-2.551.851-.414.005-1.404.558-2.2 1.228-8.618 7.252-8.36 7.171-12.188 3.837-1.353-1.18-2.911-2.378-3.461-2.664-.55-.285-1.226-.837-1.501-1.225-.276-.388-1.176-.921-2-1.184-.825-.263-2.039-.975-2.699-1.583-.66-.608-1.874-1.32-2.697-1.583-.823-.262-1.633-.703-1.8-.979-.167-.275-1.383-.937-2.703-1.469-1.32-.532-2.971-1.347-3.67-1.81-.791-.525-2.272-.945-3.93-1.115-1.903-.195-3.127-.581-4.299-1.358-1.67-1.106-13.974-1.792-17.101-.954M0 384.6V400h15c8.843 0 15-.151 15-.367 0-1.016-.621-1.662-1.941-2.019-.803-.216-2.422-1.118-3.599-2.004-1.177-.885-2.359-1.61-2.625-1.61-.267 0-1.003-.54-1.635-1.2-.632-.66-1.298-1.2-1.479-1.2-.54 0-9.875-9.552-10.481-10.723-.307-.593-.926-1.412-1.376-1.819-.45-.408-.933-1.26-1.072-1.895-.139-.634-.662-1.475-1.162-1.868-.5-.393-1.14-1.43-1.423-2.305-.863-2.669-1.578-3.79-2.417-3.79-.773 0-.79.333-.79 15.4m398.596-14.294c-.223.162-.841 1.245-1.375 2.407-.533 1.162-1.22 2.32-1.527 2.575-.306.254-.973 1.283-1.482 2.287s-1.305 2.168-1.769 2.587c-.464.419-.843.971-.843 1.226 0 .256-.585 1.014-1.3 1.685-.715.672-2.02 2.082-2.9 3.134-.88 1.053-1.838 2.112-2.129 2.353-.291.242-1.183 1.025-1.983 1.74-.8.715-1.609 1.3-1.797 1.3-.188 0-.826.452-1.417 1.004-1.53 1.43-4.833 3.669-6.474 4.388-2.704 1.186-3.396 1.642-3.526 2.322-.123.638.913.686 14.897.686H400v-15c0-15.24-.042-15.684-1.404-14.694" fill="#fbfbfb"/><path d="M27.128.871c-.081.55-.805 1.252-1.959 1.9-1.007.566-2.355 1.524-2.996 2.129S20.833 6 20.619 6c-.435 0-.487.049-7.319 6.842-2.695 2.679-4.9 5.095-4.9 5.369 0 .273-.449.791-.998 1.151-.549.359-1.277 1.323-1.619 2.14-.342.818-.964 1.852-1.383 2.298-.418.445-1.137 1.661-1.598 2.702-.581 1.314-1.137 1.967-1.819 2.138L0 28.887v170.156C0 368.196.005 369.2.79 369.2c.839 0 1.554 1.121 2.417 3.79.283.875.923 1.912 1.423 2.305.5.393 1.023 1.234 1.162 1.868.139.635.622 1.487 1.072 1.895.45.407 1.069 1.226 1.376 1.819.606 1.171 9.941 10.723 10.481 10.723.181 0 .847.54 1.479 1.2.632.66 1.368 1.2 1.635 1.2.266 0 1.448.725 2.625 1.61 1.177.886 2.813 1.792 3.636 2.014 1.085.294 1.564.675 1.743 1.39l.248.986H369.81l.395-.892c.237-.534 1.147-1.169 2.27-1.584 1.032-.38 2.71-1.329 3.731-2.108 1.02-.779 2.008-1.416 2.194-1.416.186 0 .878-.54 1.538-1.2.66-.66 1.357-1.2 1.548-1.2.191 0 1.002-.585 1.802-1.3.8-.715 1.692-1.498 1.983-1.74.291-.241 1.249-1.3 2.129-2.353.88-1.052 2.185-2.462 2.9-3.134.715-.671 1.3-1.429 1.3-1.685 0-.255.379-.807.843-1.226.463-.419 1.208-1.482 1.654-2.362.447-.88 1.214-2.08 1.705-2.668.491-.587 1.231-1.898 1.645-2.913.501-1.228 1.054-1.923 1.653-2.076l.9-.23V199.357c0-142.605-.088-170.557-.538-170.557-.704 0-1.69-1.144-2.07-2.4-.166-.55-.997-1.974-1.847-3.165S394 20.93 394 20.76c0-.303-.548-.964-3.4-4.1-.77-.847-1.401-1.657-1.401-1.8-.001-.143-.513-.603-1.138-1.022-.626-.419-1.48-1.273-1.899-1.899-.419-.625-.987-1.137-1.262-1.138-.275 0-.5-.158-.5-.351 0-.533-3.682-3.988-5.23-4.906-.753-.448-1.55-1.023-1.77-1.279-.22-.256-1.3-.948-2.4-1.539-1.248-.671-2.048-1.385-2.128-1.9L372.744 0H27.256l-.128.871m214.373 60.815c1.172.777 2.396 1.163 4.299 1.358 1.658.17 3.139.59 3.93 1.115.699.463 2.35 1.278 3.67 1.81 1.32.532 2.536 1.194 2.703 1.469.167.276.977.717 1.8.979.823.263 2.037.975 2.697 1.583.66.608 1.874 1.32 2.699 1.583.824.263 1.724.796 2 1.184.275.388.951.94 1.501 1.225.55.286 2.108 1.484 3.461 2.664 3.828 3.334 3.57 3.415 12.188-3.837.796-.67 1.786-1.223 2.2-1.228.413-.005 1.561-.387 2.551-.851 5.887-2.753 17.434-2.949 21.638-.367.749.46 2.029 1.019 2.844 1.242.815.224 2.011.851 2.658 1.396.646.544 1.349.989 1.562.989.212 0 1.049.626 1.86 1.39.811.765 1.693 1.53 1.96 1.7.594.379 2.65 3.438 3.5 5.207.342.713 1.085 1.793 1.65 2.4.833.895 1.068 1.631 1.247 3.903.141 1.779.595 3.602 1.247 5 1.487 3.187 1.479 8.132-.018 11.4-.581 1.27-1.185 3.515-1.35 5.017-.178 1.621-.613 3.177-1.078 3.851-.429.623-1.032 1.762-1.339 2.532-.724 1.817-6.323 8.061-8.271 9.225-.83.496-1.969 1.323-2.529 1.836-.808.74-1.722 1.007-4.4 1.283-2.516.26-4.002.667-5.807 1.591-2.657 1.359-4.08 1.289-6.774-.337-.678-.409-2.726-.908-4.708-1.148-2.837-.342-3.846-.655-5.272-1.637-.97-.667-1.965-1.213-2.21-1.213-.246 0-.871-.425-1.39-.944-.52-.519-1.636-1.361-2.482-1.872-2.026-1.221-5.172-4.418-5.537-5.625-.159-.528-.786-1.499-1.393-2.159-.607-.66-1.385-2.01-1.728-3-.343-.99-1.086-2.88-1.651-4.2-1.602-3.745-1.391-17.172.297-18.859 1.183-1.183-1.008-6.372-2.861-6.775-2.332-.508-3.37-.991-4.088-1.904-.531-.676-1.322-1.031-2.699-1.214-1.312-.174-2.245-.574-2.857-1.225-.499-.532-1.578-1.081-2.396-1.219-1.813-.306-3.779-.995-5.564-1.949-.736-.393-2.176-.866-3.2-1.049-2.917-.523-3.386-.671-4.869-1.539-.766-.448-2.225-.91-3.242-1.027-1.018-.116-2.315-.423-2.882-.682-1.865-.85-7.868.763-7.868 2.113 0 .25-.42 1.01-.934 1.691-.513.681-1.14 1.841-1.392 2.577-.253.736-.976 1.927-1.607 2.646-.659.75-1.258 1.998-1.407 2.93-.143.893-.727 2.178-1.298 2.857-.793.943-1.088 1.823-1.249 3.731-.139 1.651-.58 3.174-1.3 4.497-.675 1.237-1.126 2.73-1.183 3.914-.051 1.053-.682 3.573-1.403 5.6-.721 2.027-1.527 4.946-1.792 6.486-.265 1.54-.725 3.97-1.023 5.4-.575 2.76-1.302 7-1.67 9.741a88.868 88.868 0 01-.54 3.409c-.175.963-.168 2.271.014 2.907.409 1.424.381 1.201.397 3.243.023 3.06.424 3.266 6.903 3.542 3.126.133 6.134.332 6.684.442.55.11 1.99.402 3.2.648 1.21.247 2.925.528 3.81.625 5.242.576 7.636.826 7.99.834.22.005.49.099.6.209.649.649 3.4 1.566 5.437 1.813 1.299.157 3.48.804 4.846 1.437 1.58.732 3.142 1.15 4.294 1.15 1.299 0 2.35.33 3.717 1.167 1.048.642 2.626 1.309 3.506 1.482.88.173 1.735.346 1.9.383.165.037.471.09.679.118.209.028.863.498 1.455 1.046 1.271 1.178 3.761 1.049 5.217-.271.51-.463 1.849-.913 3.343-1.124 1.659-.235 3.036-.729 4.114-1.477l1.621-1.124 8.464-.121c8.84-.127 10.458.087 15.607 2.07.88.339 2.179.624 2.886.633.833.012 1.754.429 2.614 1.184.73.641 2.038 1.299 2.906 1.462.914.171 2.064.78 2.729 1.446.632.632 1.664 1.415 2.292 1.74 2.104 1.088 10.773 10.224 10.773 11.353 0 .237.602 1.106 1.338 1.932.735.825 1.551 2.131 1.813 2.901s.912 2.058 1.444 2.863c.532.805 1.094 2.419 1.249 3.587.155 1.168.686 3.116 1.179 4.328 1.275 3.134 1.215 14.095-.091 16.622-.455.88-.95 2.444-1.1 3.475-.15 1.031-.696 2.497-1.213 3.258-.516.762-1.07 1.798-1.231 2.304-.66 2.08-3.659 6.411-6.665 9.626-.592.634-1.621 1.958-2.286 2.944l-1.209 1.792-.055 8.5c-.03 4.676-.21 9.491-.4 10.701-.685 4.382-.786 5.018-.966 6.088-.1.599-.638 1.811-1.195 2.692-.556.882-1.016 2.103-1.021 2.712-.008.983-.883 3.192-1.945 4.908-.205.33-.568 1.34-.808 2.244-.24.904-.977 2.324-1.637 3.155-.661.831-1.201 1.762-1.201 2.069 0 .307-.63 1.189-1.4 1.959-.77.77-1.4 1.538-1.4 1.708 0 .169-.63.919-1.4 1.665-.77.746-1.4 1.581-1.4 1.855 0 .712-9.84 10.442-11.343 11.217-.691.356-1.494.983-1.783 1.393-.29.41-1.235 1.107-2.1 1.548-.866.442-1.574.939-1.574 1.104 0 .166-.675.657-1.5 1.091-.825.435-1.766 1.044-2.092 1.354-.325.31-1.405.923-2.4 1.361-.994.438-2.348 1.196-3.008 1.684-.66.489-1.663.997-2.229 1.13-.566.134-1.665.674-2.442 1.201-.777.528-2.384 1.282-3.571 1.676-1.187.394-2.988 1.227-4.002 1.851-1.015.624-2.329 1.135-2.922 1.135-1.149 0-4.429 1.345-4.819 1.976-.129.208-1.084.486-2.124.618-5.148.656-5.678.949-5.381 2.976.119.81.618 1.548 1.436 2.125 2.33 1.642 10.546 10.097 10.79 11.105.134.55.717 1.54 1.295 2.2 1.178 1.343 1.761 2.625 1.785 3.926.009.481.549 1.497 1.2 2.259.663.775 1.184 1.849 1.184 2.44 0 .581.471 1.938 1.047 3.015.576 1.078 1.28 3.22 1.565 4.76.284 1.54.875 3.79 1.311 5 .697 1.932 2.072 9.139 2.633 13.8.106.88.373 2.5.594 3.6.613 3.05.529 11.623-.142 14.4-.319 1.32-.586 3.189-.594 4.154-.029 3.642-1.299 10.113-2.677 13.646-1.572 4.028-1.71 4.236-3.477 5.249l-1.66.951-73.2.111c-40.26.061-73.616.01-74.124-.113-1.448-.353-4.461-3.798-4.469-5.111-.008-1.319-.975-3.768-1.885-4.774-.456-.503-.747-1.977-.98-4.965-.258-3.305-.569-4.749-1.399-6.498-1.782-3.753-1.537-14.232.459-19.65.381-1.035.75-3.583.867-6 .19-3.891.305-4.366 1.568-6.46.939-1.558 1.363-2.752 1.363-3.841 0-1.21.281-1.874 1.2-2.836.66-.691 1.2-1.521 1.2-1.845 0-.997 1.239-4.395 1.757-4.818.269-.22.809-1.21 1.2-2.2.39-.99 1.145-2.373 1.676-3.073.532-.701.967-1.544.967-1.875 0-.822 4.351-5.803 10.661-12.204 6.959-7.058 7.34-8.836 2.022-9.422-1.572-.173-3.017-.623-3.938-1.225-.8-.524-2.452-1.242-3.671-1.597-1.22-.354-2.635-.967-3.146-1.361-.51-.395-1.817-1.017-2.904-1.382s-2.347-1.001-2.8-1.413c-.453-.412-1.544-.974-2.424-1.248-.88-.275-2.16-.917-2.845-1.428-.685-.511-1.69-1.041-2.233-1.177-.543-.136-1.456-.683-2.03-1.215-.574-.532-1.819-1.269-2.767-1.638-.949-.37-2.175-1.073-2.725-1.563-3.369-3-4.404-3.906-6.2-5.417-1.1-.927-2.233-2.014-2.518-2.417-.286-.403-1.31-1.196-2.276-1.763-1.06-.621-2.17-1.733-2.795-2.799-.57-.972-1.378-1.951-1.796-2.175-.419-.224-.887-.812-1.042-1.308-.155-.495-1.304-2.07-2.554-3.5-1.25-1.43-2.517-3.208-2.816-3.952-.299-.744-1.027-1.882-1.619-2.53-.591-.647-1.287-1.884-1.546-2.748-.258-.863-.598-1.572-.754-1.575-.496-.008-1.572-2.905-2.066-5.562-.263-1.412-.804-3.302-1.204-4.2-1.173-2.635-1.185-2.726-1.211-9.729-.031-8.157-.577-12.232-1.868-13.942-.514-.681-.935-1.412-.935-1.625 0-.213-.536-.901-1.191-1.528-.655-.628-1.397-1.786-1.649-2.575-.252-.789-.787-1.796-1.19-2.239-.402-.442-1.007-1.865-1.345-3.162-.337-1.297-.892-2.665-1.232-3.04-.34-.376-.692-1.069-.783-1.54-.09-.471-.254-1.001-.363-1.178-.11-.176-.318-2.201-.463-4.498-.145-2.297-.381-4.303-.524-4.457-.738-.794.932-14.06 1.988-15.786.426-.696 1.059-2.223 1.407-3.393.347-1.171 1.062-2.64 1.588-3.265.527-.626.957-1.407.957-1.737 0-.331.537-1.138 1.194-1.795.657-.656 1.332-1.431 1.5-1.721 1.406-2.426 7.596-8.671 10.006-10.094.935-.553 1.7-1.141 1.7-1.306 0-.266 1.417-.944 4.3-2.058.495-.191.9-.525.9-.741 0-.456 2.119-1.041 5.036-1.39 1.12-.135 3.01-.716 4.2-1.293 3.679-1.782 9.832-1.842 14.999-.145 3.414 1.121 4.525 1.301 7.993 1.3 3.941-.001 4.383-.107 6.972-1.668.33-.199 1.213-.59 1.962-.869.749-.279 1.881-1.014 2.514-1.633.891-.871 1.533-1.127 2.838-1.132.927-.003 2.067-.228 2.532-.5 2.95-1.723 4.253-2.294 5.238-2.295.614 0 2.132-.536 3.373-1.191 1.469-.774 3.082-1.261 4.618-1.393 1.299-.113 3.466-.653 4.817-1.202 1.351-.549 3.953-1.169 5.782-1.377 1.829-.208 3.821-.567 4.426-.797.605-.231 1.1-.331 1.1-.224 0 .108.652-.077 1.449-.41.91-.38 2.733-.607 4.9-.609 1.898-.003 4.261-.25 5.251-.551.99-.3 3.86-.578 6.377-.618 6.192-.098 8.023-1.503 8.023-6.152 0-.429.338-1.342.751-2.028.858-1.424 1.552-4.415 1.635-7.047.031-.99.293-2.25.581-2.8.288-.55.817-1.54 1.176-2.2.386-.71.653-2.135.655-3.492.002-2.197.628-4.512 1.827-6.757.308-.577.671-2.377.807-4 .174-2.077.61-3.721 1.473-5.551.675-1.43 1.374-3.378 1.554-4.329.18-.951.663-2.211 1.073-2.8.89-1.278 1.668-3.454 1.668-4.662 0-.48.526-1.668 1.169-2.64.643-.973 1.294-2.309 1.447-2.969.153-.66.81-1.881 1.46-2.712.65-.832 1.269-2.002 1.376-2.6.218-1.221 1.195-2.888 1.693-2.888.473 0 1.255-1.875 1.255-3.01 0-1.43 5.595-6.92 7.6-7.458 3.127-.838 15.431-.152 17.101.954" fill="#d4dce4"/></g></svg>